<?xml version="1.0" encoding="UTF-8" standalone="no"?><!-- Generator: Gravit.io --><svg xmlns="http://www.w3.org/2000/svg" xmlns:xlink="http://www.w3.org/1999/xlink" style="isolation:isolate" viewBox="0 0 2000 2002" width="2000pt" height="2002pt"><defs><clipPath id="_clipPath_Sud6okXLOey7GkxTTuFZiCa4kA3GCr2K"><rect width="2000" height="2002"/></clipPath></defs><g clip-path="url(#_clipPath_Sud6okXLOey7GkxTTuFZiCa4kA3GCr2K)"><clipPath id="_clipPath_oDcgEDclXnNaKnv9UOG0NJYFPUeDzS6P"><rect x="0" y="0" width="2000" height="2002" transform="matrix(1,0,0,1,0,0)" fill="rgb(255,255,255)"/></clipPath><g clip-path="url(#_clipPath_oDcgEDclXnNaKnv9UOG0NJYFPUeDzS6P)"><g><path d=" M 821.637 1665.597 C 755.806 1669.428 691.294 1692.078 641.011 1733.538 L 393.081 1937.962 L 316.395 2001.192 C 139.738 1989.053 0 1841.717 0 1662 L 0 340 C 0 152.349 152.349 0 340 0 L 340 0 L 1660 0 C 1847.651 0 2000 152.349 2000 340 L 2000 1662 C 2000 1841.717 1860.262 1989.053 1683.605 2001.192 L 1683.605 2001.192 L 1606.919 1937.962 L 1358.989 1733.538 C 1308.706 1692.078 1244.194 1669.428 1178.363 1665.597 C 1174.421 1665.194 1170.419 1665 1166.371 1665 L 833.629 1665 C 829.581 1665 825.579 1665.194 821.637 1665.597 Z  M 653.62 347 L 1346.38 347 C 1432.269 347 1502 416.731 1502 502.62 L 1502 1195.38 C 1502 1281.269 1432.269 1351 1346.38 1351 L 653.62 1351 C 567.731 1351 498 1281.269 498 1195.38 L 498 502.62 C 498 416.731 567.731 347 653.62 347 L 653.62 347 L 653.62 347 L 653.62 347 L 653.62 347 Z " fill-rule="evenodd" fill="rgb(253,154,0)"/></g></g></g></svg>